<svg xmlns="http://www.w3.org/2000/svg" width="32" height="32" viewBox="0 0 32 32" fill="none" stroke-linecap="round" stroke-linejoin="round"><defs><linearGradient id="bg" x1="0" y1="0" x2="1" y2="1"><stop offset="0%" stop-color="#3b82f6"/><stop offset="100%" stop-color="#2563eb"/></linearGradient></defs><rect width="32" height="32" rx="6" fill="url(#bg)"/><svg x="4" y="4" width="24" height="24" viewBox="0 0 24 24"><path d="M4 5a1 1 0 011-1h4a1 1 0 011 1v4a1 1 0 01-1 1H5a1 1 0 01-1-1V5zm10 0a1 1 0 011-1h4a1 1 0 011 1v4a1 1 0 01-1 1h-4a1 1 0 01-1-1V5zM4 15a1 1 0 011-1h4a1 1 0 011 1v4a1 1 0 01-1 1H5a1 1 0 01-1-1v-4zm10 0a1 1 0 011-1h4a1 1 0 011 1v4a1 1 0 01-1 1h-4a1 1 0 01-1-1v-4z" fill="none" stroke="white" stroke-width="2"/></svg></svg>